<svg xmlns="http://www.w3.org/2000/svg" fill-rule="evenodd" stroke-linejoin="round" stroke-miterlimit="2" clip-rule="evenodd" viewBox="0 0 64 64" id="pexels"><path fill="none" d="M0 0h64v64H0z"></path><path fill="#95d6a4" d="M58 16c0-5.519-4.481-10-10-10H16C10.481 6 6 10.481 6 16v32c0 5.519 4.481 10 10 10h32c5.519 0 10-4.481 10-10V16Z"></path><path fill="#78c2a4" d="M10.001 8.001A9.952 9.952 0 0 0 8 14v32c0 5.519 4.481 10 10 10h32c2.25 0 4.328-.745 5.999-2.001A9.987 9.987 0 0 1 48 58H16c-5.519 0-10-4.481-10-10V16a9.987 9.987 0 0 1 4.001-7.999Z"></path><path fill="#f9f6f9" d="M36 38a.997.997 0 0 0-1 1v6a1 1 0 0 1-1 1H21a1 1 0 0 1-1-1V19a1 1 0 0 1 1-1h15a8 8 0 0 1 8 8v4a8 8 0 0 1-8 8Zm-1-4a5 5 0 0 0 5-5v-2a5 5 0 0 0-5-5H25a1 1 0 0 0-1 1v18a.997.997 0 0 0 1 1h5a.997.997 0 0 0 1-1v-6a.997.997 0 0 1 1-1h3Z"></path><path d="M36 38.5a8.5 8.5 0 0 0 8.5-8.5v-4a8.5 8.5 0 0 0-8.5-8.5H21a1.5 1.5 0 0 0-1.5 1.5v26a1.5 1.5 0 0 0 1.5 1.5h13a1.5 1.5 0 0 0 1.5-1.5v-6c0-.133.053-.26.146-.354A.504.504 0 0 1 36 38.5Zm0-1a7.5 7.5 0 0 0 7.5-7.5v-4a7.5 7.5 0 0 0-7.5-7.5H21a.5.5 0 0 0-.5.5v26a.5.5 0 0 0 .5.5h13a.5.5 0 0 0 .5-.5v-6a1.503 1.503 0 0 1 1.5-1.5Zm-1-3a5.5 5.5 0 0 0 5.5-5.5v-2a5.5 5.5 0 0 0-5.5-5.5H25a1.5 1.5 0 0 0-1.5 1.5v18a1.503 1.503 0 0 0 1.5 1.5h5a1.503 1.503 0 0 0 1.5-1.5v-6c0-.133.053-.26.146-.354A.504.504 0 0 1 32 34.5h3Zm0-1h-3a1.503 1.503 0 0 0-1.5 1.5v6c0 .133-.053.26-.146.354A.504.504 0 0 1 30 41.5h-5a.504.504 0 0 1-.354-.146A.504.504 0 0 1 24.5 41V23a.5.5 0 0 1 .5-.5h10a4.5 4.5 0 0 1 4.5 4.5v2a4.5 4.5 0 0 1-4.5 4.5Z"></path><path d="M58.5 16c0-5.795-4.705-10.5-10.5-10.5H16C10.205 5.5 5.5 10.205 5.5 16v32c0 5.795 4.705 10.5 10.5 10.5h32c5.795 0 10.5-4.705 10.5-10.5V16Zm-1 0v32c0 5.243-4.257 9.5-9.5 9.5H16c-5.243 0-9.5-4.257-9.5-9.5V16c0-5.243 4.257-9.5 9.5-9.5h32c5.243 0 9.5 4.257 9.5 9.5Z"></path></svg>